<?xml version="1.0" encoding="utf-8"?>
<!-- Generator: Adobe Illustrator 16.0.3, SVG Export Plug-In . SVG Version: 6.00 Build 0)  -->
<!DOCTYPE svg PUBLIC "-//W3C//DTD SVG 1.1//EN" "http://www.w3.org/Graphics/SVG/1.1/DTD/svg11.dtd">
<svg version="1.1" id="Capa_1" xmlns="http://www.w3.org/2000/svg" xmlns:xlink="http://www.w3.org/1999/xlink" x="0px" y="0px"
	 width="48px" height="48px" viewBox="0 0 48 48" enable-background="new 0 0 48 48" xml:space="preserve">
<path fill="#FFFFFF" d="M48,36c0,6.627-5.373,12-12,12H12C5.373,48,0,42.627,0,36V12C0,5.373,5.373,0,12,0h24
	c6.627,0,12,5.373,12,12V36z"/>
<g>
	<path fill="#1D71B8" d="M14.732,22.654l1.97,0.06c0.351-1.688,1.276-3.164,2.561-4.219c0.262-0.215,0.542-0.405,0.832-0.583
		l-3.889-9.188c0,0,3.604-2.417,7.829-2.417c5.613,0,9.466,1.531,10.49,1.986l0.287-0.487c0,0-4.18-2.711-10.771-2.733
		c-5.66-0.018-10.913,2.417-10.913,2.417l5.176,9.283C16.449,18.184,15.139,20.262,14.732,22.654z"/>
	<path fill="#1D71B8" d="M23.967,31.658c-1.009,0-1.969-0.203-2.846-0.568c-0.428-0.177-0.833-0.396-1.216-0.647l-6.067,7.922
		c0,0-3.882-1.423-5.97-5.097C5.313,28.771,4.626,24,4.448,24H4.118c0,0-0.184,4.463,3.177,10.134
		c2.887,4.867,7.672,7.872,7.672,7.872l5.173-9.087c1.17,0.525,2.464,0.76,3.828,0.76c1.312,0,2.56-0.305,3.693-0.79l-0.979-1.733
		C25.84,31.484,24.926,31.658,23.967,31.658z"/>
	<path fill="#1D71B8" d="M43.883,22.972l-10.639-0.065c-0.354-2.474-1.664-4.631-3.553-6.089l-1.02,1.677
		c1.33,1.091,2.27,2.637,2.594,4.398c0.063,0.347,0.098,0.7,0.111,1.06l9.914,1.05c0,0,0.365,4.324-1.682,8.021
		c-2.756,4.973-6.016,7.608-6.857,8.238l0.281,0.487c0,0,4.785-3.262,7.672-8.129C44.066,27.949,43.883,22.972,43.883,22.972z"/>
</g>
</svg>
