<?xml version="1.0" encoding="utf-8"?>
<!-- Generator: Adobe Illustrator 16.0.3, SVG Export Plug-In . SVG Version: 6.00 Build 0)  -->
<!DOCTYPE svg PUBLIC "-//W3C//DTD SVG 1.1//EN" "http://www.w3.org/Graphics/SVG/1.1/DTD/svg11.dtd">
<svg version="1.1" id="Layer_1" xmlns="http://www.w3.org/2000/svg" xmlns:xlink="http://www.w3.org/1999/xlink" x="0px" y="0px"
	 width="792px" height="202px" viewBox="0 180 792 202" enable-background="new 0 180 792 202" xml:space="preserve">
<g>
	<path fill="rgb(247,147,29)" d="M396.647,275.409l7.568,0.049c-1.346-9.456-6.36-17.708-13.578-23.288l-3.904,6.414
		C391.821,262.758,395.415,268.67,396.647,275.409z"/>
	<path fill="rgb(247,147,29)" d="M350.747,258.586L347.073,252c-7.091,5.395-12.101,13.347-13.656,22.499l7.536,0.228
		C342.296,268.272,345.831,262.621,350.747,258.586z"/>
	<path fill="rgb(247,147,29)" d="M368.74,308.933c-3.857,0-7.531-0.777-10.884-2.171l-3.756,6.505c4.476,2.01,9.42,3.149,14.641,3.149
		c5.017,0,9.79-1.038,14.126-2.895l-3.748-6.575C375.903,308.213,372.409,308.933,368.74,308.933z"/>
	<path fill="rgb(247,147,29)" d="M353.927,256.358l-14.875-35.144c0,0,13.784-9.246,29.942-9.246c21.471,0,36.206,5.856,40.117,7.596
		l1.097-1.863c0,0-15.979-10.37-41.19-10.453c-21.648-0.071-41.741,9.246-41.741,9.246L347.073,252l3.674,6.586
		C351.747,257.766,352.819,257.038,353.927,256.358z"/>
	<path fill="rgb(247,147,29)" d="M353.204,304.287L330,334.583c0,0-14.848-7.411-22.833-21.459c-9.776-17.2-12.4-31.878-13.083-37.418
		l-1.263,0.007c0,0-0.705,19.036,12.15,40.725c11.039,18.621,29.342,31.093,29.342,31.093l19.787-34.264l3.756-6.505
		C356.222,306.082,354.667,305.245,353.204,304.287z"/>
	<path fill="rgb(247,147,29)" d="M444.908,275.713l-40.692-0.255l-7.568-0.049c0.242,1.322,0.38,2.675,0.434,4.053l37.911,4.018
		c0,0,1.406,16.539-6.425,30.672c-10.543,19.025-23.002,29.105-26.229,31.516l1.076,1.862c0,0,18.305-12.472,29.345-31.093
		C445.613,294.749,444.908,275.713,444.908,275.713z"/>
</g>
<g>
	<path fill="#1D71B8" d="M32.3,319.02c4.078,6.565,8.543,11.516,13.392,14.845c4.851,3.335,10.856,5,18.019,5
		c7.858,0,14.361-2.733,19.51-8.208c5.147-5.471,7.722-12.108,7.722-19.921c0-10.691-6.517-18.924-19.549-24.693
		c-2.885-1.344-6.167-2.762-9.849-4.254s-6.95-2.921-9.81-4.29c-2.861-1.367-5.583-2.922-8.169-4.663
		c-9.153-6.117-13.729-15.07-13.729-26.86c0-11.938,4.104-21.137,12.31-27.604c8.208-6.467,18.552-9.701,31.038-9.701
		c11.789,0,21.164,3.058,28.127,9.177c-1.492,3.135-3.333,8.532-5.521,16.189h-1.791c-1.99-5.421-5.099-9.722-9.325-12.907
		c-4.229-3.182-9.178-4.774-14.848-4.774c-6.964,0-12.821,2.214-17.57,6.639c-4.75,4.427-7.125,10.048-7.125,16.863
		c0,7.46,2.735,13.478,8.208,18.054c2.237,1.842,4.798,3.458,7.685,4.851c2.884,1.542,5.421,2.661,7.61,3.357
		c1.89,0.796,3.643,1.503,5.26,2.125c1.616,0.624,2.823,1.133,3.619,1.53c1.641,0.698,3.269,1.38,4.886,2.051
		c1.616,0.673,2.948,1.333,3.992,1.977c6.366,3.581,10.419,6.417,12.161,8.506c5.522,6.864,8.282,13.802,8.282,20.816
		c0,8.954-2.152,16.776-6.453,23.463c-4.303,6.691-10.161,11.79-17.571,15.295c-7.411,3.509-15.594,5.259-24.547,5.259
		c-5.421,0-11.302-0.991-17.645-2.983c-6.341-1.989-11.055-4.672-14.137-8.056c1.74-4.528,2.958-10.224,3.655-17.085H32.3z"/>
	<path fill="#1D71B8" d="M167.061,211.433c4.477,0,11.19-0.199,20.143-0.596c0,0.596-0.1,1.517-0.298,2.76
		c-0.198,1.243-0.298,2.264-0.298,3.059c0,2.636,0.198,4.577,0.596,5.818c-1.938-0.099-4.587-0.296-7.945-0.597
		c-3.357-0.297-6.503-0.521-9.438-0.671l-19.548-0.597h-14.4l-0.896,29.321v8.58v11.267h19.847l10.371-0.597
		c2.038-0.098,4.973-0.249,8.803-0.446c3.829-0.2,6.715-0.348,8.654-0.449c-0.596,3.729-0.895,5.67-0.895,5.82
		c0,0.148,0.298,2.087,0.895,5.818c-7.312-0.846-13.13-1.268-17.458-1.268l-10.669-0.299h-8.581h-10.968v15.593v24.473
		c0,7.509,0.1,13.203,0.298,17.085c11.79,0,23.502-0.3,35.141-0.897c5.571,0,11.49-0.521,17.757-1.566
		c0,5.126,0.099,9.003,0.298,11.642l-13.505-0.301c-10.544-0.395-18.577-0.597-24.098-0.597c-1.841,0-4.676,0.05-8.505,0.152
		c-3.831,0.099-6.715,0.148-8.655,0.148c-1.641,0-4.277,0.049-7.909,0.148c-3.631,0.099-6.391,0.147-8.281,0.147l1.268-24.472
		l0.298-66.923l-0.298-17.084c0-2.339-0.324-10.695-0.969-25.069l21.114,0.596H167.061z"/>
	<path fill="#1D71B8" d="M216.617,211.433l25.964-0.596c9.499,0,17.631,0.945,24.396,2.834c6.764,1.892,11.762,6.042,14.997,12.46
		c2.635,4.575,3.953,9.55,3.953,14.922c0,10.645-3.843,19.037-11.526,25.181c-7.686,6.144-17.174,10.183-28.464,12.124
		l40.289,51.034l9.476,11.039l3.357,4.255c-1.443-0.099-3.408-0.273-5.895-0.524c-2.487-0.247-4.376-0.373-5.67-0.373
		c-1.194,0-2.984,0.126-5.372,0.373c-2.388,0.251-4.278,0.426-5.671,0.524c-0.795-1.145-2.473-3.495-5.035-7.05
		c-2.563-3.56-4.838-6.705-6.828-9.438l-23.277-29.995l-15.594-18.278h-7.311v15.593v8.507l0.597,40.662
		c-3.682-0.399-6.616-0.597-8.805-0.597c-2.237,0-5.396,0.197-9.475,0.597c0-3.384,0.112-7.05,0.335-11.004
		c0.225-3.958,0.411-7.822,0.561-11.605l0.895-68.489l-1.193-37.901v-4.849L216.617,211.433z M218.109,272.536
		c0.994,0,2.51,0.051,4.55,0.15c2.039,0.099,3.582,0.148,4.626,0.148c5.62,0,11.017-0.398,16.19-1.194
		c7.56-1.64,13.627-4.898,18.205-9.774c4.575-4.874,6.864-10.991,6.864-18.353c0-7.313-2.139-13.106-6.417-17.383
		c-3.532-3.781-8.53-6.243-14.996-7.387c-2.438-0.197-6.516-0.298-12.236-0.298c-7.312,0-12.709,0.101-16.189,0.298L218.109,272.536
		z"/>
</g>
<g>
	<path fill="#1D71B8" d="M503.566,211.433c4.477,0,11.192-0.199,20.146-0.596c0,0.596-0.101,1.517-0.299,2.76
		c-0.2,1.243-0.298,2.264-0.298,3.059c0,2.636,0.197,4.577,0.597,5.818c-1.941-0.099-4.589-0.296-7.948-0.597
		c-3.356-0.297-6.503-0.521-9.438-0.671l-19.547-0.597h-14.398l-0.896,29.321v8.58v11.267h19.845l10.371-0.597
		c2.04-0.098,4.975-0.249,8.803-0.446c3.831-0.2,6.716-0.348,8.657-0.449c-0.597,3.729-0.897,5.67-0.897,5.82
		c0,0.148,0.301,2.087,0.897,5.818c-7.313-0.846-13.131-1.268-17.46-1.268l-10.669-0.299h-8.581h-10.966v15.593l0.299,50.435
		h-12.833h-4.926l1.271-24.472l0.296-66.923l-0.296-17.084c0-2.339-0.325-10.695-0.972-25.069l21.115,0.596H503.566z"/>
	<path fill="#1D71B8" d="M644.771,232.844c-0.298-0.348-0.607-0.721-0.931-1.117c-0.324-0.4-0.736-0.748-1.231-1.046
		c-10.098-9.748-21.813-14.624-35.142-14.624c-11.538,0-21.402,2.812-29.584,8.431c-8.181,5.62-14.311,13.183-18.391,22.681
		c-4.079,9.501-6.116,19.896-6.116,31.188c0,6.218,1.12,14.375,3.356,24.472c2.14,7.162,5.396,13.381,9.774,18.65
		c4.627,5.969,10.471,10.573,17.533,13.804c7.062,3.236,14.473,4.853,22.232,4.853c13.282,0,26.313-4.704,39.095-14.101
		c0.995-0.997,2.016-1.495,3.06-1.495l-1.791,11.861c-10.892,7.364-25.266,11.045-43.122,11.045
		c-14.128,0-26.425-2.837-36.895-8.505c-10.47-5.672-18.454-13.769-23.951-24.288c-5.495-10.518-8.244-22.916-8.244-37.191
		c0-9.451,2.029-18.952,6.081-28.501c4.055-9.55,9.563-17.258,16.526-23.128c13.479-11.439,30.613-17.161,51.405-17.161
		c14.523,0,28.475,2.959,41.857,8.879c-1.493,3.929-2.837,8.928-4.03,14.996L644.771,232.844z"/>
	<path fill="#1D71B8" d="M718.083,208.373l55.359,129.298l3.356,7.014c-4.475-0.399-7.732-0.597-9.772-0.597
		c-4.925,0-8.507,0.197-10.743,0.597l-1.791-5.82l-8.878-23.201l-9.478-23.206l-23.499-0.671l-26.339,0.671
		c-9.6,24.47-16.017,41.883-19.248,52.227c-1.394-0.399-3.631-0.597-6.716-0.597c-1.592,0-4.028,0.197-7.312,0.597l61.104-136.312
		H718.083z M733.079,284.175l-21.712-50.138l-21.338,50.138h23.501H733.079z"/>
</g>
</svg>
